<svg height="512" viewBox="0 0 512 512" width="512" xmlns="http://www.w3.org/2000/svg"><path d="m232 256h-56v-48h40z" fill="#f6d3bc"/><path d="m248 432-10.45 8.99-73.989-.99-11.561-8-8-128 8-56h112v80z" fill="#e9823b"/><path d="m264 304.142a7.771 7.771 0 0 0 -4.438 1.2l-21.054 14.035-22.508-5.624v-17.753a8 8 0 0 0 -16 0v17.754l-22.25 5.562-28.95-21.716a7.745 7.745 0 0 0 -3.682-1.409l-1.118 7.809.655 10.488 26.545 19.912a7.99 7.99 0 0 0 6.735 1.364l30.065-7.518 30.062 7.516a8.037 8.037 0 0 0 6.376-1.106l19.562-13.041z" fill="#d37636"/><path d="m264 304h11.156a95.263 95.263 0 0 0 52.844-16h96l8-40h-168z" fill="#fad7be"/><path d="m256 224-80-8v-72a40 40 0 0 1 40-40 40 40 0 0 1 40 40z" fill="#f6d3bc"/><path d="m176 212.571 24 3.429 16-32-24-16h-16z" fill="#e4c3ae"/><path d="m344.008 424a7.981 7.981 0 0 1 -6.735-3.676l-144-224a7.991 7.991 0 0 1 1.985-10.765l152-112a8 8 0 0 1 9.484 12.882l-145.953 107.547 139.938 217.688a8 8 0 0 1 -6.719 12.324z" fill="#cdcdcd"/><path d="m152 432-5.267 10.534a101.671 101.671 0 0 0 -10.733 45.466h128a101.671 101.671 0 0 0 -10.733-45.466l-5.267-10.534z" fill="#d37636"/><g fill="#bef5fa"><path d="m328 160h16v16h-16z"/><path d="m280 160h32v16h-32z"/><path d="m23.151 164.001h19.698v15.997h-19.698z" transform="matrix(.914 -.406 .406 .914 -67.04 28.247)"/><path d="m62.491 143.113h35.018v15.997h-35.018z" transform="matrix(.914 -.406 .406 .914 -54.498 45.542)"/></g><path d="m344 56 104 112 8 80-8 80-112 112a96.567 96.567 0 0 1 28.284-68.284l43.716-43.716 16-80-16-80-39.608-44.559a96.566 96.566 0 0 1 -24.392-64.156z" fill="#ec9e15"/><path d="m448 328h-40l16-80-16-80h40l8 80z" fill="#fdb62f"/><path d="m456 208h-232a8 8 0 0 1 0-16h232a8 8 0 0 1 0 16z" fill="#e54f3d"/><path d="m488 200-32-16v32z" fill="#f85542"/><path d="m456 296-32-8 8-40h32l4 24z" fill="#fad7be"/><path d="m224 216h-48l16-16-16-16h48l16 16z" fill="#f85542"/><path d="m184 216 16-32-24-16h-48l-87.643 40.45a28.157 28.157 0 0 0 4.971 52.882l10.672 2.668a135.765 135.765 0 0 0 76.8 38.4l11.2 1.6 8-56-64-16 40-24z" fill="#fad7be"/></svg>