<svg id="Flat" enable-background="new 0 0 512 512" height="512" viewBox="0 0 512 512" width="512" xmlns="http://www.w3.org/2000/svg"><path d="m222.575 226.63-46.575-18.63v29.496c0 8.484 4.139 16.435 11.09 21.3l40.237 28.166c17.216 12.051 40.13 12.051 57.346 0l40.237-28.166c6.951-4.865 11.09-12.816 11.09-21.3v-29.496l-46.575 18.63c-21.457 8.583-45.393 8.583-66.85 0z" fill="#d191ff"/><path d="m434.79 348.79c-4.493-3.04-9.85-4.79-15.59-4.79h-3.052l-53.76-168v-32c0-8.837-6.877-16-15.36-16l-5.366-41.89c-5.722-44.72-42.336-78.11-85.642-78.11h-2.304c-43.306 0-79.92 33.39-85.642 78.11l-5.366 41.89c-8.486 0-15.36 7.16-15.36 16v32l-53.76 168h-.788c-15.907 0-28.8 13.43-28.8 30v130h384v-130c0-10.58-5.261-19.89-13.21-25.21z" fill="#d191ff"/><path d="m200 328 8-8 4.27-46.61-14.94-10.46c-13.37-9.36-21.33-24.65-21.33-40.96v-29.97h-16c-6.58 0-12.228-3.966-14.687-9.64l-51.725 161.64h33.662z" fill="#bc5eff"/><path d="m309.588 328-8-8-4.27-46.61 14.94-10.46c13.37-9.36 21.33-24.65 21.33-40.96v-29.97h16c6.58 0 12.228-3.966 14.687-9.64l51.725 161.64h-33.662z" fill="#bc5eff"/><path d="m312 328-18.8 14.775c-20.56 21.217-47.65 22.836-69.2 4.842-1.78-1.489-3.51-3.093-5.2-4.842l-18.8-14.775 5.71-27.76 6.56-44.24 11.73 11.866 9.06 9.163c13.77 13.933 32.11 13.933 45.88 0l20.79-21.029 6.56 44.24z" fill="#ffbeb5"/><path d="m212.27 256-4.383 29.56 13.706 9.594c10.136 7.096 22.034 10.846 34.407 10.846s24.271-3.75 34.407-10.846l13.706-9.594-4.383-29.56z" fill="#e6aca3"/><path d="m352 128h-16s-35.817-56-80-56c-44.183 0-80 56-80 56h-16c-8.84 0-16 7.16-16 16v32c0 8.84 7.16 16 16 16h16v45.496c0 8.484 4.139 16.435 11.09 21.3l40.237 28.166c17.216 12.051 40.13 12.051 57.346 0l40.237-28.166c6.951-4.865 11.09-12.816 11.09-21.3v-45.496h16c8.837 0 16-7.163 16-16v-32c0-8.837-7.163-16-16-16z" fill="#ffbeb5"/><path d="m256 400c-50.83 0-96.63-21.55-128.75-56h-26.68c8.904 38.314 30.321 71.828 59.712 96l15.718 11.535c27.609 18.003 60.583 28.465 96 28.465 79.789 0 147.184-53.098 168.755-125.89-1.742-2.044-3.749-3.837-5.964-5.32-4.493-3.04-9.85-4.79-15.59-4.79h-34.45c-32.131 34.45-77.921 56-128.751 56z" fill="#ffd642"/><path d="m121.318 464h16v40h-16z" fill="#bc5eff"/><path d="m377.318 464h16v40h-16z" fill="#bc5eff"/><path d="m336 424v-43.193c-5.19 2.653-10.528 5.057-16 7.194v36h16z" fill="#ffe68c"/><path d="m368 400v-40.231c-5.1 4.211-10.441 8.141-16 11.766v28.465z" fill="#ffe68c"/><path d="m222.575 226.63-46.575-15.899v26.765c0 8.484 4.139 16.435 11.09 21.3l40.237 28.166c17.216 12.051 40.13 12.051 57.346 0l40.237-28.166c6.951-4.865 11.09-12.816 11.09-21.3v-26.765l-46.575 15.899c-21.457 8.583-45.393 8.583-66.85 0z" fill="#f0dcff"/><path d="m264 160h-16v-11.858c0-2.652 1.054-5.196 2.929-7.071l5.071-5.071 5.071 5.071c1.875 1.875 2.929 4.419 2.929 7.071z" fill="#ff593f"/><path d="m280 72h-48c-30.928 0-56 25.072-56 56h40c22.091 0 40-17.909 40-40 0 22.091 17.909 40 40 40h40c0-30.928-25.072-56-56-56z" fill="#ffd642"/></svg>