<svg id="Layer_1_copy" height="512" viewBox="0 0 64 64" width="512" xmlns="http://www.w3.org/2000/svg" data-name="Layer 1 copy"><path d="m10.62 20a1 1 0 0 1 -.92-.62c-.06-.15-1.55-3.8.11-6.29.93-1.39 2.58-2.1 4.9-2.1a13.93 13.93 0 0 0 10.22-4.61 1 1 0 1 1 1.56 1.25 15.81 15.81 0 0 1 -11.78 5.37c-1.61 0-2.7.41-3.24 1.21-1.05 1.58.06 4.38.08 4.41a1 1 0 0 1 -.93 1.38z" fill="#c18c16"/><path d="m19 44a1 1 0 0 1 -1-.78l-1.85-8.17a1 1 0 1 1 2-.44l1.85 8.17a1 1 0 0 1 -.75 1.2z" fill="#c18c16"/><path d="m50.88 1.53a1 1 0 0 0 -1.35-.42l-11.15 5.89 1.57-4.7a1 1 0 0 0 -1.9-.63l-2.23 6.71-4.15 2.2a1 1 0 1 0 .94 1.77l17.86-9.47a1 1 0 0 0 .41-1.35z" fill="#c18c16"/><path d="m24.25 57.5-3.25 6.5h-6.83l-5.17-7 4-4 4.15 1.66z" fill="#c18c16"/><path d="m54.81 31a20.26 20.26 0 0 0 -7.73-10l-5 11a18.74 18.74 0 0 1 -1.35 7.71 20.34 20.34 0 0 1 -1.53 3.12 21.68 21.68 0 0 1 -7.12 7.17c-11 7-11 12-11 12v2h30.42l-1.42-2s-2-3 4-18a18.5 18.5 0 0 0 .73-13z" fill="#c18c16"/><path d="m37.52 48.3a.57.57 0 0 1 -.11.11c-2.8 2.81-4.1 10.59-4.41 13.59v2h-12v-2s0-5 11-12a21.68 21.68 0 0 0 7.12-7.17 6.61 6.61 0 0 1 -1.6 5.47z" fill="#f2b41c"/><g opacity=".5"><path d="m54.73 31c-.53.54-1.08 1.06-1.64 1.55a38.67 38.67 0 0 1 -10 6.2c-.85.36-1.67.69-2.46 1a18.74 18.74 0 0 0 1.37-7.75l5-11a20.26 20.26 0 0 1 7.73 10z" fill="#a57411"/></g><g opacity=".5"><path d="m15.17 59.54 1.74 1.27-2.91 2.19-5-6 4-4 4.15 1.66a8.17 8.17 0 0 1 -1.98 4.88z" fill="#a57411"/></g><path d="m57 13h-21a1 1 0 0 1 0-2h21a1 1 0 0 1 0 2z" fill="#e2a317"/><path d="m61 18.84h-17.5a1 1 0 0 1 0-2h17.5a1 1 0 0 1 0 2z" fill="#e2a317"/><path d="m63 24h-17a1 1 0 0 1 0-2h17a1 1 0 0 1 0 2z" fill="#e2a317"/><path d="m35 41a1 1 0 0 1 -1-.73l-1.88-6.57a1 1 0 1 1 1.92-.55l1.96 6.58a1 1 0 0 1 -.73 1.27 1 1 0 0 1 -.27 0z" fill="#e2a317"/><path d="m41 39a1 1 0 0 1 -.78-.37l-4.1-5.13a1 1 0 1 1 1.56-1.25l4.1 5.13a1 1 0 0 1 -.78 1.62z" fill="#e2a317"/><path d="m47 37a1 1 0 0 1 -.71-.29l-4.82-4.82a1 1 0 0 1 1.41-1.41l4.82 4.82a1 1 0 0 1 -.7 1.7z" fill="#e2a317"/><path d="m52 33a1 1 0 0 1 -.55-.17l-6.31-4.21a1 1 0 1 1 1.1-1.62l6.31 4.21a1 1 0 0 1 -.55 1.79z" fill="#e2a317"/><path d="m9 51.5a1 1 0 0 1 -.78-.37l-3.3-4.13-2.21 2.21a1 1 0 0 1 -1.41-1.41l3-3a1 1 0 0 1 .76-.29 1 1 0 0 1 .73.37l4 5a1 1 0 0 1 -.79 1.62z" fill="#c18c16"/><path d="m12 51a1 1 0 0 1 -.8-1.6l2.48-3.31-2.39-2.39a1 1 0 0 1 1.41-1.41l3 3a1 1 0 0 1 .09 1.31l-3 4a1 1 0 0 1 -.79.4z" fill="#c18c16"/><path d="m1 59a1 1 0 0 1 -1-1v-4a1 1 0 0 1 2 0v2.72l6.76-1.72a1 1 0 1 1 .48 2l-8 2a1 1 0 0 1 -.24 0z" fill="#c18c16"/><g fill="#a06c04"><path d="m46 41h-3a1 1 0 0 1 0-2h3a1 1 0 0 1 0 2z"/><path d="m52 41h-3a1 1 0 0 1 0-2h3a1 1 0 0 1 0 2z"/><path d="m50.92 48h-1.92a1 1 0 0 1 0-2h1.92a1 1 0 0 1 0 2z"/><path d="m46 48h-3a1 1 0 0 1 0-2h3a1 1 0 0 1 0 2z"/><path d="m40 48h-3a1 1 0 0 1 0-2h3a1 1 0 0 1 0 2z"/><path d="m49 55h-3a1 1 0 0 1 0-2h3a1 1 0 0 1 0 2z"/><path d="m42 55h-3a1 1 0 0 1 0-2h3a1 1 0 0 1 0 2z"/><path d="m35 55h-2.49a1 1 0 0 1 0-2h2.49a1 1 0 0 1 0 2z"/><path d="m47 63h-2a1 1 0 0 1 0-2h2a1 1 0 0 1 0 2z"/><path d="m41 63h-3a1 1 0 0 1 0-2h3a1 1 0 0 1 0 2z"/><path d="m34 63h-3a1 1 0 0 1 0-2h3a1 1 0 0 1 0 2z"/></g><circle cx="9" cy="53" fill="#f2b41c" r="4"/><path d="m47 22c0 6.08-3 10-11 11l-20 3-2-4 12-3v-4h-16l-.4-2.82-.6-4.18h15c1.31-4.62 7-7 12-7a11 11 0 0 1 11 11z" fill="#f2b41c"/><path d="m42.44 13.08a25 25 0 0 0 -4.24.19c-9.86 1.33-13.2 8.4-13.2 8.4l-13.39.44-2 .07-.61-4.18h15c1.31-4.62 7-7 12-7a10.93 10.93 0 0 1 6.44 2.08z" fill="#fdca2f"/><path d="m34 20h-2a1 1 0 0 1 0-2h2a1 1 0 0 1 0 2z" fill="#5e3011"/></svg>