<svg id="Capa_1" enable-background="new 0 0 512 512" height="512" viewBox="0 0 512 512" width="512" xmlns="http://www.w3.org/2000/svg"><g><path d="m429.772 277.404h.243c20.897 0 37.829-16.946 37.829-37.829 0-20.897-16.932-37.843-37.829-37.843-.272 0-.544 0-.816.014h-346.399c-.272-.014-.544-.014-.816-.014-20.897 0-37.829 16.946-37.829 37.843 0 20.882 16.932 37.829 37.829 37.829h.243" fill="#f1b986"/><path d="m429.771 512h-347.542c.258-9.931.649-19.862 1.154-29.793 2.555-49.809 42.412-89.451 92.242-91.81 53.58-2.524 107.17-2.524 160.76 0 1.277.062 2.544.144 3.801.258 6.119.525 12.074 1.617 17.802 3.224 19.677 5.491 36.808 16.998 49.274 32.44 3.276 4.049 6.222 8.355 8.818 12.908 7.273 12.764 11.734 27.372 12.537 42.979.505 9.932.896 19.863 1.154 29.794z" fill="#e27d47"/><g fill="#dd542e"><path d="m362.799 388.079c-1.514 1.896-3.121 3.832-4.811 5.8-20.109 23.478-52.457 52.683-96.322 86.916-15.515 12.105-30.02 22.901-41.403 31.204h-26.486c23.179-16.401 103.348-74.389 146.409-121.345 3.832-4.183 7.376-8.272 10.549-12.239 2.668-3.327 7.531-3.873 10.858-1.195 3.338 2.67 3.874 7.532 1.206 10.859z"/><path d="m417.337 437.981c-.412.412-.834.824-1.257 1.247-30.04 29.298-83.702 55.99-122.138 72.772h-40.692c28.68-11.116 114.772-46.564 153.157-84.949.268-.268.556-.515.855-.731 3.029-2.266 7.324-2.019 10.075.731 3.018 3.019 3.018 7.912 0 10.93z"/><path d="m256.006 388.498c-16.567 0-33.134.638-49.701 1.902-30.821 2.356-55.461 41.996-57.039 91.805-.313 9.932-.562 19.863-.713 29.795h-66.323c.259-9.932.648-19.863 1.156-29.795 2.55-49.809 42.406-89.449 92.237-91.805 26.791-1.264 53.582-1.902 80.383-1.902z"/></g><path d="m256.002 0c89.125 0 155.393 41.682 165.076 102.947 8.537 68.419 11.056 136.848 7.543 205.267-2.55 49.809-42.417 89.46-92.226 91.805-26.801 1.264-53.602 1.902-80.393 1.902s-53.592-.638-80.393-1.902c-49.809-2.345-89.676-41.996-92.226-91.805-3.512-68.419-.994-136.848 7.543-205.267 9.684-61.265 75.952-102.947 165.076-102.947z" fill="#f1d0a5"/><path d="m208.398 401.251c-10.926-.303-21.862-.713-32.788-1.232-49.809-2.345-89.676-41.996-92.226-91.805-3.512-68.419-.994-136.848 7.543-205.267 8.98-56.812 66.614-96.787 146.023-102.288-42.341 8.937-72.58 47.777-77.529 101.65-4.993 68.862-6.463 137.734-4.409 206.596 1.48 49.809 24.51 89.503 53.386 92.346z" fill="#f1b986"/><path d="m256 320.075c-18.017 0-34.65-10.519-42.375-26.8-1.83-3.855-.188-8.463 3.667-10.293 3.853-1.828 8.463-.188 10.293 3.668 5.181 10.917 16.335 17.972 28.415 17.972s23.234-7.054 28.415-17.972c1.829-3.856 6.437-5.496 10.293-3.668 3.855 1.829 5.497 6.438 3.667 10.293-7.725 16.281-24.358 26.8-42.375 26.8z" fill="#da4a54"/><g fill="#454045"><path d="m175.452 202.948c-8.627 0-15.646 10.47-15.646 23.34 0 12.869 7.019 23.339 15.646 23.339s15.645-10.47 15.645-23.339c0-12.87-7.019-23.34-15.645-23.34z"/><path d="m336.549 202.948c-8.627 0-15.645 10.47-15.645 23.34 0 12.869 7.018 23.339 15.645 23.339s15.646-10.47 15.646-23.339c0-12.87-7.019-23.34-15.646-23.34z"/></g><g fill="#da4a54"><g><path d="m237.498 127.042c-3.147 0-6.054-1.991-7.195-4.92-1.243-3.192-.192-6.961 2.575-9.003 5.582-4.122 13.62.935 12.169 7.783-.746 3.522-3.938 6.14-7.549 6.14z"/><path d="m237.498 91.82c-3.163 0-6.066-2-7.208-4.946-1.279-3.297-.075-7.168 2.849-9.157 5.645-3.84 13.429 1.339 11.889 8.073-.796 3.475-3.955 6.03-7.53 6.03z"/><path d="m237.498 56.598c-3.305 0-6.293-2.167-7.336-5.3-1.017-3.055.043-6.55 2.588-8.522 5.454-4.227 13.543.604 12.353 7.421-.638 3.654-3.894 6.401-7.605 6.401z"/></g><g><path d="m274.512 127.042c-6.59 0-10.16-8.121-5.672-12.976 2.36-2.553 6.244-3.196 9.308-1.565 2.986 1.59 4.625 5.09 3.922 8.401-.746 3.52-3.946 6.14-7.558 6.14z"/><path d="m274.512 91.82c-6.891 0-10.275-8.717-5.245-13.398 2.375-2.21 6.022-2.673 8.882-1.143 2.888 1.544 4.55 4.9 3.969 8.132-.656 3.646-3.881 6.409-7.606 6.409z"/><path d="m274.512 56.598c-3.307 0-6.291-2.17-7.332-5.3-1.001-3.009-.003-6.416 2.458-8.413 5.182-4.205 13.246.029 12.562 6.744-.398 3.901-3.761 6.969-7.688 6.969z"/></g></g></g></svg>