<?xml version="1.0" encoding="iso-8859-1"?>
<!-- Generator: Adobe Illustrator 19.0.0, SVG Export Plug-In . SVG Version: 6.00 Build 0)  -->
<svg version="1.1" id="Layer_1" xmlns="http://www.w3.org/2000/svg" xmlns:xlink="http://www.w3.org/1999/xlink" x="0px" y="0px"
	 viewBox="0 0 512 512" style="enable-background:new 0 0 512 512;" xml:space="preserve">
<g>
	<path style="fill:#DBDBDB;" d="M229.365,479.108h-109.64c-8.327,0-15.141-6.813-15.141-15.141l0,0
		c0-8.327,6.813-15.141,15.141-15.141h109.64c8.327,0,15.141,6.813,15.141,15.141l0,0
		C244.506,472.296,237.693,479.108,229.365,479.108z"/>
	<polygon style="fill:#DBDBDB;" points="111.237,451.209 224.667,380.432 234.531,407.345 172.457,448.827 	"/>
	<path style="fill:#DBDBDB;" d="M284.707,479.108h109.64c8.327,0,15.141-6.813,15.141-15.141l0,0
		c0-8.327-6.813-15.141-15.141-15.141h-109.64c-8.327,0-15.141,6.813-15.141,15.141l0,0
		C269.567,472.296,276.38,479.108,284.707,479.108z"/>
</g>
<g>
	<path style="fill:#B2B2B2;" d="M284.707,512h133.656c8.327,0,15.141-6.813,15.141-15.141l0,0c0-8.327-6.813-15.141-15.141-15.141
		H284.707c-8.327,0-15.141,6.813-15.141,15.141l0,0C269.567,505.188,276.38,512,284.707,512z"/>
	<path style="fill:#B2B2B2;" d="M100.408,512h133.656c8.327,0,15.141-6.813,15.141-15.141l0,0c0-8.327-6.813-15.141-15.141-15.141
		H100.408c-8.327,0-15.141,6.813-15.141,15.141l0,0C85.267,505.188,92.081,512,100.408,512z"/>
</g>
<g>
	<polygon style="fill:#DBDBDB;" points="402.835,451.209 289.406,380.432 278.394,406.056 341.616,448.827 	"/>
	<path style="fill:#DBDBDB;" d="M487.487,391.002v104.262c0,8.931-7.307,16.237-16.237,16.237l0,0
		c-8.931,0-16.237-7.307-16.237-16.237v-90.53L487.487,391.002z"/>
	<path style="fill:#DBDBDB;" d="M23.763,391.002v104.262c0,8.931,7.307,16.237,16.237,16.237l0,0
		c8.931,0,16.237-7.307,16.237-16.237l-0.208-98.646L23.763,391.002z"/>
	<path style="fill:#DBDBDB;" d="M185.248,403.901H39.918c-8.931,0-16.237-7.307-16.237-16.237l0,0
		c0-8.931,7.307-16.237,16.237-16.237h179.444h73.276h179.444c8.931,0,16.237,7.307,16.237,16.237l0,0
		c0,8.931-7.307,16.237-16.237,16.237h-145.33H185.248z"/>
	<path style="fill:#DBDBDB;" d="M286.688,348.411v46.377c0,17.031-13.806,30.837-30.837,30.837l0,0
		c-17.031,0-30.837-13.806-30.837-30.837v-46.377H286.688z"/>
</g>
<path style="opacity:0.08;fill:#5D5D5D;enable-background:new    ;" d="M272.824,389.308h-34.229c-7.589,0-13.74-6.152-13.74-13.74
	v-18.752h61.709v18.752C286.565,383.157,280.414,389.308,272.824,389.308z"/>
<path style="fill:#DBDBDB;" d="M403.745,92.236L403.745,92.236C403.745,41.506,362.238,0,311.509,0H198.04
	c-17.449,0-33.845,4.85-47.761,13.419c-34.289,21.113-38.866,47.219-38.866,47.219c-3.628,9.868-5.609,20.513-5.609,31.598l0,0
	c0,11.738,2.222,33.424,6.266,43.776l1.886,6.638l-2.698,5.135c-8.393,15.974-5.262,35.568,7.693,48.131l13.997,13.573l1.829,6.438
	v71.922l79.756,70.89h77.617l82.21-70.89v-71.922l1.711-5.926l14.527-14.086c12.954-12.563,16.087-32.156,7.694-48.131l-2.743-5.221
	l1.785-6.182C401.469,125.93,403.745,104.115,403.745,92.236z"/>
<g>
	<path style="opacity:0.08;fill:#5D5D5D;enable-background:new    ;" d="M395.538,142.564l1.785-6.182
		c4.137-10.452,6.412-32.268,6.412-44.146C403.735,41.506,362.229,0,311.499,0h-43.856c50.73,0,92.236,41.506,92.236,92.236
		c0,11.879-2.275,33.694-6.412,44.146l-1.785,6.182l2.743,5.221c8.393,15.974,5.262,35.568-7.694,48.131l-14.527,14.086
		l-1.711,5.926v71.922l-82.21,70.89h43.856l82.21-70.89v-71.922l1.711-5.926l14.527-14.086
		c12.954-12.563,16.087-32.156,7.694-48.131L395.538,142.564z"/>
	<path style="fill:#5D5D5D;" d="M235.646,235.945c-1.42,0-2.858-0.386-4.15-1.197c-3.665-2.295-4.775-7.129-2.48-10.794
		l19.12-30.521c1.433-2.286,3.94-3.674,6.637-3.674l0,0c2.697,0,5.205,1.388,6.637,3.674l19.119,30.521
		c2.296,3.665,1.187,8.499-2.479,10.794c-3.665,2.295-8.498,1.186-10.794-2.479l-12.483-19.926l-12.483,19.926
		C240.804,234.643,238.255,235.945,235.646,235.945z"/>
	<path style="fill:#5D5D5D;" d="M256.34,293.449c-25.018,0-48.538-9.742-66.228-27.432c-3.058-3.059-3.058-8.017,0-11.076
		c3.058-3.058,8.017-3.056,11.075,0c14.731,14.732,34.319,22.846,55.153,22.846c20.835,0,40.422-8.113,55.153-22.846
		c3.059-3.057,8.017-3.057,11.076,0c3.058,3.059,3.058,8.017,0,11.076C304.878,283.707,281.358,293.449,256.34,293.449z"/>
	<circle style="fill:#5D5D5D;" cx="187.62" cy="161.505" r="40.219"/>
	<circle style="fill:#5D5D5D;" cx="321.934" cy="161.505" r="40.219"/>
</g>
<g style="opacity:0.27;">
	<path d="M331.087,122.281l-39.736,65.023c6.033,7.205,14.542,12.26,24.22,13.865l38.628-64.018
		C348.572,129.765,340.448,124.394,331.087,122.281z"/>
</g>
<g style="opacity:0.27;">
	<path d="M195.343,122.281l-39.736,65.023c6.033,7.205,14.542,12.26,24.22,13.865l38.628-64.018
		C212.828,129.765,204.704,124.394,195.343,122.281z"/>
</g>
<g>
	<path style="fill:#5D5D5D;" d="M194.85,294.962c-4.325,0-7.831-3.505-7.831-7.831v-45.051c0-4.326,3.506-7.831,7.831-7.831
		c4.325,0,7.831,3.505,7.831,7.831v45.051C202.681,291.457,199.175,294.962,194.85,294.962z"/>
	<path style="fill:#5D5D5D;" d="M225.549,308.665c-4.325,0-7.831-3.505-7.831-7.831v-45.052c0-4.326,3.506-7.831,7.831-7.831
		s7.831,3.505,7.831,7.831v45.052C233.38,305.16,229.874,308.665,225.549,308.665z"/>
	<path style="fill:#5D5D5D;" d="M256.249,313.013c-4.325,0-7.831-3.505-7.831-7.831V260.13c0-4.326,3.506-7.831,7.831-7.831
		c4.326,0,7.831,3.505,7.831,7.831v45.052C264.08,309.508,260.574,313.013,256.249,313.013z"/>
	<path style="fill:#5D5D5D;" d="M286.948,308.665c-4.326,0-7.831-3.505-7.831-7.831v-45.052c0-4.326,3.505-7.831,7.831-7.831
		s7.831,3.505,7.831,7.831v45.052C294.78,305.16,291.274,308.665,286.948,308.665z"/>
	<path style="fill:#5D5D5D;" d="M317.648,294.962c-4.326,0-7.831-3.505-7.831-7.831v-45.051c0-4.326,3.505-7.831,7.831-7.831
		s7.831,3.505,7.831,7.831v45.051C325.48,291.457,321.973,294.962,317.648,294.962z"/>
</g>
<g>
</g>
<g>
</g>
<g>
</g>
<g>
</g>
<g>
</g>
<g>
</g>
<g>
</g>
<g>
</g>
<g>
</g>
<g>
</g>
<g>
</g>
<g>
</g>
<g>
</g>
<g>
</g>
<g>
</g>
</svg>
