<svg id="Capa_1" enable-background="new 0 0 512 512" height="512" viewBox="0 0 512 512" width="512" xmlns="http://www.w3.org/2000/svg"><g><g><path d="m100.116 241h54.68v30h-54.68z" fill="#bcbcd1"/></g><g><path d="m85.116 227.291h30v57.419h-30z" fill="#aaaac4"/></g><g><path d="m357.193 241h54.68v30h-54.68z" fill="#aaaac4"/></g><g><path d="m396.873 227.291h30v57.419h-30z" fill="#9f9fbe"/></g><path d="m452.736 438.582c-12.87-39.306-45.632-68.83-86.061-77.555l-41.891-9.04c-45.334-9.783-92.234-9.783-137.568 0l-41.891 9.04c-40.429 8.724-73.191 38.248-86.061 77.555l-24.038 73.418h441.549z" fill="#9f5528"/><g><path d="m452.736 438.582c-12.87-39.306-45.632-68.83-86.061-77.555l-41.891-9.04c-22.667-4.891-45.725-7.337-68.784-7.337v167.35h220.774z" fill="#904d24"/></g><path d="m206.683 307.7v40.777l49.317 54.798 49.317-54.798v-40.777z" fill="#80d297"/><path d="m256 307.7v95.575l49.317-54.798v-40.777z" fill="#59c87f"/><path d="m375.054 0h-238.108v215.237c0 65.752 53.302 119.054 119.054 119.054 65.752 0 119.054-53.302 119.054-119.054z" fill="#9fddaf"/><path d="m375.054 0h-119.054v334.291c65.752 0 119.054-53.302 119.054-119.054z" fill="#80d297"/><g><path d="m205.844 225.786c-8.284 0-15-6.716-15-15 0-8.284 6.716-15 15-15 8.284 0 15 6.716 15 15 0 8.285-6.716 15-15 15z" fill="#56281b"/></g><g><path d="m306.156 225.786c8.284 0 15-6.716 15-15 0-8.284-6.716-15-15-15-8.284 0-15 6.716-15 15 0 8.285 6.716 15 15 15z" fill="#56281b"/></g><g><path d="m124.621 427.568-14.459 84.432h30.437l13.592-79.367z" fill="#824520"/><path d="m387.379 427.568-29.569 5.065 13.591 79.367h30.437z" fill="#673416"/></g><g><g><path d="m136.946 132.823h119.054v30h-119.054z" fill="#00b34b"/></g></g><g><path d="m214.238 77.983 41.756 22.826 41.755-22.826 41.76 22.826 35.545-19.429v-81.38h-238.108v81.381l35.538 19.428z" fill="#515165"/></g><g><path d="m255.994 100.809 41.755-22.826 41.76 22.826 35.545-19.429v-81.38h-119.055z" fill="#434353"/></g><g><path d="m156.629 123.916h30v47.815h-30z" fill="#00b34b"/></g><g><path d="m206.311 123.916h30v47.815h-30z" fill="#00b34b"/></g></g></svg>