<svg id="Capa_1" enable-background="new 0 0 512 512" height="512" viewBox="0 0 512 512" width="512" xmlns="http://www.w3.org/2000/svg"><g><g><path d="m128.773 478.355v-298.073h383.227v298.077c0 16.059-17.727 26.234-31.288 17.633-4.212-2.672-9.295-4.595-16.613-4.595-23.952 0-23.952 20.604-47.903 20.604-23.95 0-23.95-20.604-47.9-20.604-23.951 0-23.951 20.604-47.901 20.604-23.952 0-23.952-20.604-47.903-20.604s-23.951 20.604-47.902 20.604c-23.954 0-23.954-20.604-47.908-20.604-7.319 0-12.402 1.924-16.615 4.595-13.565 8.601-31.294-1.576-31.294-17.637z" fill="#e9edf5"/></g><g><path d="m211.187 401.771h300.813v-221.489h-383.227v298.073c0 16.061 17.729 26.239 31.293 17.637 4.213-2.672 9.296-4.595 16.615-4.595 5.822 0 10.223 1.223 13.902 3.065v-72.087c0-11.38 9.225-20.604 20.604-20.604z" fill="#dce1eb"/></g><g><path d="m51.509 0c-28.448 0-51.509 80.715-51.509 180.282s23.061 180.282 51.509 180.282h408.982v-360.564z" fill="#f2f6fc"/></g><g><g><g><ellipse cx="118.114" cy="214.841" fill="#ffa4d2" rx="31.872" ry="25.381"/></g><g><ellipse cx="290.868" cy="214.841" fill="#ffa4d2" rx="31.872" ry="25.381"/></g><g><ellipse cx="204.491" cy="195.34" fill="#555a66" rx="16.918" ry="18.932"/></g></g><g><path d="m123.441 191.713c-4.143 0-7.5-3.358-7.5-7.5v-12.362c0-4.142 3.357-7.5 7.5-7.5s7.5 3.358 7.5 7.5v12.362c0 4.142-3.357 7.5-7.5 7.5z" fill="#555a66"/></g><g><path d="m285.54 191.713c-4.143 0-7.5-3.358-7.5-7.5v-12.362c0-4.142 3.357-7.5 7.5-7.5s7.5 3.358 7.5 7.5v12.362c0 4.142-3.357 7.5-7.5 7.5z" fill="#555a66"/></g></g><g><ellipse cx="460.491" cy="180.282" fill="#e9edf5" rx="51.509" ry="180.282"/></g><g><path d="m36.104 44.009h-18.32c-1.518 4.607-2.958 9.523-4.313 14.714.646.182 1.325.286 2.029.286h20.604c4.143 0 7.5-3.358 7.5-7.5s-3.357-7.5-7.5-7.5z" fill="#e9edf5"/></g><g><g><path d="m354.636 59.009h-39.667c-4.143 0-7.5-3.358-7.5-7.5s3.357-7.5 7.5-7.5h39.667c4.143 0 7.5 3.358 7.5 7.5s-3.358 7.5-7.5 7.5zm-79.334 0h-39.666c-4.143 0-7.5-3.358-7.5-7.5s3.357-7.5 7.5-7.5h39.666c4.143 0 7.5 3.358 7.5 7.5s-3.358 7.5-7.5 7.5zm-79.333 0h-39.667c-4.143 0-7.5-3.358-7.5-7.5s3.357-7.5 7.5-7.5h39.667c4.143 0 7.5 3.358 7.5 7.5s-3.358 7.5-7.5 7.5zm-79.333 0h-39.667c-4.143 0-7.5-3.358-7.5-7.5s3.357-7.5 7.5-7.5h39.667c4.143 0 7.5 3.358 7.5 7.5s-3.358 7.5-7.5 7.5z" fill="#e9edf5"/></g></g><g><g><path d="m424.482 59.009h-20.604c-4.143 0-7.5-3.358-7.5-7.5s3.357-7.5 7.5-7.5h20.604c4.143 0 7.5 3.358 7.5 7.5s-3.357 7.5-7.5 7.5z" fill="#e9edf5"/></g></g></g></svg>